<svg xmlns="http://www.w3.org/2000/svg" viewBox="0 0 439.84 439.84"><defs><style>.cls-1{fill:#dd0932;}.cls-2{fill:#fff;}</style></defs><g id="Capa_1" data-name="Capa 1"><rect class="cls-1" width="439.84" height="439.84" rx="42.68"/></g><g id="Capa_2" data-name="Capa 2"><path class="cls-2" d="M375.46,374.32c-16,0-29.73.35-43.38-.3-2.68-.13-6.21-3.69-7.51-6.38q-10.05-20.82-19-42.05c-2.2-5.26-5.31-7.16-11.66-7.1q-43.58.43-87.14,0c-6.48-.07-9.36,2.12-11.51,7.28-5.67,13.57-12.28,26.83-17.82,40.43-2.61,6.4-6.61,8.65-14.13,8.33-11.85-.52-23.76-.14-37.87-.14l125-249.83ZM285.35,283.1c-11.72-25-22.81-48.67-35-74.57L215.67,283.1Z" transform="translate(-30.08 -30.08)"/></g></svg>