<svg id="Capa_1" data-name="Capa 1" xmlns="http://www.w3.org/2000/svg" viewBox="0 0 490 490"><defs><style>.cls-1{fill:#fff;}</style></defs><path class="cls-1" d="M248.58,495c-135.31,0-245-109.69-245-245S113.27,5,248.58,5s245,109.69,245,245S383.89,495,248.58,495Zm210-245c-4.71-276-415.32-276-420,0C43.3,526,453.91,526,458.58,250Z" transform="translate(-3.58 -5)"/><path class="cls-1" d="M274.51,191.3H314v38.37H274.51V365.88h-59.9V229.67H189.1V191.3h25.51q.21-25.76,5.1-38.55t21.08-22.47q16.19-9.68,44.14-9.68a277.43,277.43,0,0,1,31.51,1.73v38q-7.54-.69-14-.7-18,0-23,6T274.51,191.3Z" transform="translate(-3.58 -5)"/></svg>