<svg id="Capa_1" data-name="Capa 1" xmlns="http://www.w3.org/2000/svg" viewBox="0 0 439.84 439.84"><defs><style>.cls-1{fill:#2c0d0f;}.cls-2{fill:#f4991c;}</style></defs><rect class="cls-1" width="439.84" height="439.84" rx="42.68"/><path class="cls-2" d="M207.62,323.15H167.33c-2.49,0-2.5,0-3.25,2.31l-16.34,50.48c-.21.64-.4,1.29-.63,1.92a4,4,0,0,1-3.55,2.71,15.45,15.45,0,0,1-1.8,0H101.25c-.38,0-.75,0-1.13,0-3-.12-3.89-1.37-3-4.25.67-2.23,1.47-4.41,2.24-6.6q14-40.15,27.91-80.29,18.9-54.37,37.81-108.75c2.63-7.58,5.39-15.11,7.71-22.8a55.8,55.8,0,0,0,2.07-14.41c0-1.12,0-2.25.09-3.37a2.32,2.32,0,0,1,2.41-2.44c.52-.05,1,0,1.57,0h57.62a3.19,3.19,0,0,1,3.27,2.47c4.5,12.88,9.1,25.72,13.66,38.58q10.71,30.21,21.4,60.41,17.56,49.61,35.15,99.2,6.58,18.56,13.21,37.08a8.44,8.44,0,0,1,.64,2.84c0,1.5-.42,2-1.94,2.24a12.32,12.32,0,0,1-2,.1H274.21c-3.21,0-4-.57-5.06-3.67l-17.84-51.66c-.72-2.11-.72-2.12-3-2.12Zm-.55-142.91a8.51,8.51,0,0,0-.87,2.7c-.94,4.56-2.09,9.06-3.29,13.55-2.86,10.65-6.38,21.09-9.59,31.63q-5.87,19.24-11.79,38.47c-.88,2.87-1.9,5.69-2.9,8.51-.31.89-.09,1.28.85,1.28.37,0,.75,0,1.12,0,6.3,0,12.6.08,18.9.08q17.33,0,34.64-.05c3,0,2.6-.23,1.83-2.66-3-9.64-6.2-19.25-9.21-28.91-6-19.32-12.43-38.52-17.68-58.07A45.21,45.21,0,0,0,207.07,180.24Z" transform="translate(-31.98 -30.08)"/><path class="cls-2" d="M348.13,288.38q0-43.67,0-87.35c0-4.11.42-4.54,4.46-4.54h42.76c.53,0,1.05,0,1.58,0a2.68,2.68,0,0,1,2.85,2.81c0,.52,0,1.05,0,1.58V376c0,.37,0,.75,0,1.12-.1,2.73-.95,3.57-3.74,3.57H354.43c-1.05,0-2.1,0-3.15,0a3.07,3.07,0,0,1-3.1-2.95,18.74,18.74,0,0,1,0-2.25Q348.13,332,348.13,288.38Z" transform="translate(-31.98 -30.08)"/><path class="cls-2" d="M345.59,147.89a26.78,26.78,0,0,1,7-19.16,28.32,28.32,0,0,1,17.57-9.14,33.33,33.33,0,0,1,13.15.73,24.38,24.38,0,0,1,17.43,15.51c4,10.36,3.32,20.48-3,29.79-5.08,7.42-12.41,11.07-21.34,11.49a30.63,30.63,0,0,1-16.89-3.66c-7.23-4-11.24-10.33-13.13-18.2A40.45,40.45,0,0,1,345.59,147.89Z" transform="translate(-31.98 -30.08)"/></svg>