<svg xmlns="http://www.w3.org/2000/svg" viewBox="0 0 490 490"><defs><style>.cls-1{fill:#fff;}</style></defs><g id="Capa_2" data-name="Capa 2"><path class="cls-1" d="M250.46,494.63c-135.31,0-245-109.69-245-245s109.69-245,245-245,245,109.69,245,245S385.77,494.63,250.46,494.63Zm210-245c-4.71-276-415.32-276-420,0,4.72,276,415.33,276,420,0Z" transform="translate(-5.46 -4.63)"/></g><g id="Capa_3" data-name="Capa 3"><path class="cls-1" d="M199.56,152.37H300.82c1.8.32,3.59.6,5.38.95,26.4,5.09,45,26.86,45.05,52.74q0,43.09,0,86.18a55.91,55.91,0,0,1-.94,10.33c-4.08,21-21.32,37.87-43.28,42.22a62.39,62.39,0,0,1-11.9,1.13c-29.94.09-59.87,0-89.81.06a56.69,56.69,0,0,1-23.3-4.56c-16.61-7.39-27.28-19.57-31.73-36.67-.61-2.37-1-4.79-1.51-7.18v-96.8c.53-2.57.9-5.19,1.63-7.72,5.79-20.1,19.1-33.13,40-38.9C193.37,153.33,196.5,153,199.56,152.37Zm50.63,176.24v.09q22.07,0,44.13,0a42.71,42.71,0,0,0,13.16-1.82,36.67,36.67,0,0,0,25.82-35.17c-.17-28.36,0-56.72-.13-85.07a41,41,0,0,0-1.91-12.23c-4.6-14.16-18.92-24.91-36.55-24.81-29.67.17-59.35,0-89,.13a47.71,47.71,0,0,0-13.14,1.84,36.29,36.29,0,0,0-25.86,35.25c.21,28.23,0,56.46.12,84.69A43.85,43.85,0,0,0,168.09,302c3.77,15,18.59,26.4,34.63,26.61C218.54,328.77,234.37,328.61,250.19,328.61Z" transform="translate(-5.46 -4.63)"/><path class="cls-1" d="M302.39,249.11c.27,27.93-24.71,50-52.32,50-28.69,0-52.09-22.42-52.07-49.95s23.34-49.81,51.94-49.88C277.58,199.18,302.58,221.19,302.39,249.11Zm-18.43.08c0-18.09-15.15-32.64-34-32.61S216.12,231,216,249.06s15,32.66,33.9,32.71S284,267.28,284,249.19Z" transform="translate(-5.46 -4.63)"/><path class="cls-1" d="M304.61,209.89c-7.25,0-13.19-5.6-13.22-12.52s5.92-12.62,13.11-12.69,13.18,5.71,13.23,12.58S311.84,209.87,304.61,209.89Z" transform="translate(-5.46 -4.63)"/></g></svg>