<svg xmlns="http://www.w3.org/2000/svg" viewBox="0 0 439.84 439.84"><defs><style>.cls-1{fill:#fff;}.cls-2{fill:#567fc0;}</style></defs><g id="Capa_1" data-name="Capa 1"><rect class="cls-1" width="439.84" height="439.84" rx="42.68"/></g><g id="Capa_2" data-name="Capa 2"><path class="cls-2" d="M154.14,441.07c-26.47.5-46.62-20.42-46.58-46.83a45.73,45.73,0,0,1,46.31-45.82c25.69.22,46.58,18.89,46.49,46.69C200.27,421.34,179.63,441.71,154.14,441.07ZM180.28,395a30.25,30.25,0,0,0-2.38-12.31c-4.18-10.37-15.54-17.77-27.42-15.78a25.64,25.64,0,0,0-16.77,9.83,29,29,0,0,0-5.63,14.21,29.54,29.54,0,0,0,3.15,18.1c4.16,7.9,10.75,12.67,19.79,13.81a24.08,24.08,0,0,0,16.46-3.64C176.28,413.58,179.92,405.12,180.28,395Z" transform="translate(-30.08 -30.08)"/><path class="cls-2" d="M229.46,359.73c1.69-1.22,3.19-2.34,4.73-3.4a45,45,0,0,1,16.37-7.07,43,43,0,0,1,15.1-.36,37.51,37.51,0,0,1,12.25,3.71c7.7,4,12.39,10.51,15.19,18.56a53.13,53.13,0,0,1,2.81,17.2c.11,16.34,0,32.68.09,49,0,1.37-.44,1.86-1.84,1.84-5.85-.06-11.7-.07-17.54,0-1.48,0-1.9-.45-1.9-1.9q.07-24.15,0-48.3c0-5.63-1.29-11-4.79-15.49-4.86-6.31-10.58-8.3-18.53-6.69a29.13,29.13,0,0,0-14,7.15c-3.61,3.29-5.94,7.16-5.91,12.35.11,16.87,0,33.75,0,50.62,0,2.22,0,2.23-2.26,2.23-5.8,0-11.6,0-17.4,0-1.29,0-1.78-.35-1.78-1.71q0-42.64,0-85.28c0-1.43.51-1.8,1.86-1.78,4.45.07,8.89,0,13.34,0,2.59,0,2.85.3,3.09,2.95.16,1.68.42,3.35.66,5A7.71,7.71,0,0,0,229.46,359.73Z" transform="translate(-30.08 -30.08)"/><path class="cls-2" d="M386.07,441.05a42.77,42.77,0,0,1-17.92-3.35,45.73,45.73,0,0,1-27.27-31.16,43.45,43.45,0,0,1-1.56-13.61c.88-13.5,6.19-24.92,16.57-33.71A48.8,48.8,0,0,1,391,348.62a41.33,41.33,0,0,1,17.63,6.45,49.11,49.11,0,0,1,13.9,12.49c1.36,1.89,1.39,1.9-.47,3.15-4.08,2.75-8.2,5.45-12.25,8.24-1.07.74-1.63.62-2.42-.42-3.82-5-8.5-8.92-14.59-10.94a22.61,22.61,0,0,0-13-.36c-10.29,2.63-16.8,9.31-19.42,19.44-2.34,9.07-1.24,17.88,4.33,25.68A24.89,24.89,0,0,0,382,422.79c10.61,1.6,18.34-3.19,24.83-10.9.12-.15.22-.31.34-.47,1.23-1.58,1.25-1.61,2.95-.47,4.14,2.75,8.24,5.56,12.39,8.29,1.08.7,1.1,1.27.4,2.3-4.47,6.49-10.56,11.06-17.35,14.8A36,36,0,0,1,386.07,441.05Z" transform="translate(-30.08 -30.08)"/><path class="cls-2" d="M76.47,394.75V352.57c0-2.08,0-2.08,2.09-2.08,5.9,0,11.79,0,17.69,0,1.33,0,1.86.32,1.86,1.77q0,42.61,0,85.22c0,1.46-.56,1.79-1.89,1.78-5.94-.06-11.88,0-17.82,0-1.87,0-1.93-.06-1.93-2Z" transform="translate(-30.08 -30.08)"/><path class="cls-2" d="M329.85,394.83v42.34c0,2,0,2-2,2-5.94,0-11.89,0-17.84,0-1.32,0-1.76-.43-1.76-1.76q0-42.63,0-85.27c0-1.35.44-1.75,1.76-1.74q9,.09,18,0c1.46,0,1.91.4,1.9,1.88C329.83,366.5,329.85,380.66,329.85,394.83Z" transform="translate(-30.08 -30.08)"/><path class="cls-2" d="M256,58.9a17,17,0,0,0,2,.51c5,.78,10.13,1.33,15.13,2.32a89.23,89.23,0,0,1,24.45,9.05c.21.11.4.25.89.55-5.07,4-9.12,8.74-11.36,14.89-2.49-1-4.81-2.07-7.18-3-6.6-2.52-13.35-4.51-20.44-4.94-4.71-.29-9.44-.58-14.15-.5a67.88,67.88,0,0,0-16.12,2.47,83.79,83.79,0,0,0-58.51,55.17c-1.13,3.47-1.79,7.09-2.6,10.66a71.08,71.08,0,0,0-1.34,19.3A62,62,0,0,0,168,175.56c1,4.74,2.25,9.46,3.72,14.09a70.46,70.46,0,0,0,8.7,17.42,82.11,82.11,0,0,0,16.71,18.53,78,78,0,0,0,24.43,13.8,106,106,0,0,0,11.8,3.42,74.92,74.92,0,0,0,21,1.63A89.25,89.25,0,0,0,273.87,241a83.61,83.61,0,0,0,35.45-21.35,81.82,81.82,0,0,0,18.05-27.72,81.89,81.89,0,0,0,.41-60.45c-.46-1.1-1.29-2.45-1-3.36s1.87-1.21,2.93-1.7a32.8,32.8,0,0,0,11.1-8.4c.21-.24.48-.44.94-.86a20.61,20.61,0,0,1,1.42,2.74c2.06,6,4.42,12,6,18.08a80.5,80.5,0,0,1,2.51,18.77c.1,6.38.14,12.77-1,19.08-.72,4.07-1.67,8.11-2.66,12.13a92.49,92.49,0,0,1-9.91,24,101.15,101.15,0,0,1-21.23,25.83,99.63,99.63,0,0,1-17.12,12.08A86.26,86.26,0,0,1,280,258.21a147.28,147.28,0,0,1-15.33,3.54,92.93,92.93,0,0,1-21.22.86,105.8,105.8,0,0,1-19.26-3.1,102.15,102.15,0,0,1-59.53-43,98.61,98.61,0,0,1-11.45-23.95,106.69,106.69,0,0,1-4.09-18.17,108.09,108.09,0,0,1-.32-24.71,94.77,94.77,0,0,1,4.07-19.2,98.85,98.85,0,0,1,16.3-31.58,100.78,100.78,0,0,1,27.09-24.55A101.86,101.86,0,0,1,220,63.5a87.83,87.83,0,0,1,22-4.08,16.68,16.68,0,0,0,2.68-.52Z" transform="translate(-30.08 -30.08)"/><path class="cls-2" d="M250,207.19c-25.34.43-46.44-20.42-46.37-46.32a46.41,46.41,0,0,1,92.81.2C296.37,187.34,274.84,207.73,250,207.19Z" transform="translate(-30.08 -30.08)"/><path class="cls-2" d="M316.62,118.4c-11.08.38-21.12-9.23-21-21.18a21.06,21.06,0,0,1,42.11.11C337.79,109.54,327.62,118.83,316.62,118.4Z" transform="translate(-30.08 -30.08)"/></g></svg>