<svg xmlns="http://www.w3.org/2000/svg" viewBox="0 0 439.84 439.84"><defs><style>.cls-1{fill:#e76f0a;}.cls-2{fill:#e52728;}.cls-3{fill:#0f8ac8;}</style></defs><g id="Capa_1" data-name="Capa 1"><rect class="cls-1" width="439.84" height="439.84" rx="42.68"/></g><g id="Capa_2" data-name="Capa 2"><path class="cls-2" d="M148.85,453.29c-.95-1.15-1.88-2.31-2.85-3.45-1.14-1.35-2.3-2.68-3.51-4.09l1.09-.64a31.78,31.78,0,0,0,7.65-6.15,17.88,17.88,0,0,0,4.67-11c.31-4.06.53-8.14.54-12.21q.08-35.46,0-70.91v-1.35h14v1q0,36.6,0,73.19a67.49,67.49,0,0,1-1.32,15.14c-1.65,7.18-6.07,12.41-12.15,16.36-2.21,1.43-4.67,2.48-7,3.7l-.77.43Z" transform="translate(-30.08 -30.08)"/><path class="cls-2" d="M231.35,430.13h-9.79c-.66,0-.62-.48-.69-.87-.27-1.78-.52-3.55-.78-5.32a4.42,4.42,0,0,0-.21-.66c-1,.77-1.89,1.49-2.83,2.18a28.13,28.13,0,0,1-12.71,5.61,27.39,27.39,0,0,1-14.48-1.36,14.17,14.17,0,0,1-8.71-9.55,21.19,21.19,0,0,1,.65-14.39c2.15-5.14,6.25-8.33,11.31-10.46a39,39,0,0,1,12.64-2.94c3.79-.26,7.59-.3,11.38-.37.81,0,1.09-.22,1.06-1-.12-2.55.06-5.13-.3-7.64-.69-4.87-3.79-7.66-8.76-8.39-6.28-.93-12.35.12-18.38,1.73-1.69.46-3.35,1-5.07,1.55a4,4,0,0,1-.24-.57c-.54-2.21-1.06-4.43-1.61-6.64a.69.69,0,0,1,.47-1,63.2,63.2,0,0,1,16.81-4.52,53,53,0,0,1,12.21-.16c4.26.47,8.3,1.6,11.73,4.28a16.28,16.28,0,0,1,6.1,11.66,47.49,47.49,0,0,1,.19,4.92q0,21.32,0,42.62Zm-13.17-22.2c0-2.28,0-4.56,0-6.84,0-.7-.2-1-.95-.95-3.06.1-6.12.05-9.17.22a23.77,23.77,0,0,0-8.78,2,8.89,8.89,0,0,0-5.48,6.45,16.77,16.77,0,0,0-.25,4.53,8.54,8.54,0,0,0,4.44,7.34,12.3,12.3,0,0,0,8.37,1,25.14,25.14,0,0,0,11.34-5.86,1.61,1.61,0,0,0,.45-1.1C218.2,412.43,218.18,410.18,218.18,407.93Z" transform="translate(-30.08 -30.08)"/><path class="cls-2" d="M307.11,378.25c-.62-2.57-1.25-5.07-1.82-7.58,0-.17.34-.52.59-.63a62,62,0,0,1,13.05-4,56.38,56.38,0,0,1,14-.89c4.43.27,8.69,1.17,12.46,3.63,4.4,2.86,6.58,7.05,7.22,12.08a37.4,37.4,0,0,1,.22,4.37q0,21.72,0,43.45v1.34H342.55c-.34-2.21-.69-4.42-1.06-6.81-.38.28-.67.47-.93.69a31.27,31.27,0,0,1-12.87,6.77,27.79,27.79,0,0,1-15.34-.63c-5.94-2-9.25-6.28-10.24-12.29a21.15,21.15,0,0,1,1.35-12.34c2.18-4.82,6-7.9,10.83-10a38.72,38.72,0,0,1,12.89-3.08c3.75-.27,7.53-.29,11.29-.4,1.24,0,1.26,0,1.23-1.27a60.24,60.24,0,0,0-.26-7.37c-.7-4.88-3.85-7.68-8.86-8.41-6.25-.91-12.3.14-18.29,1.74C310.59,377.12,308.93,377.69,307.11,378.25Zm32.6,29.69c0-2.25,0-4.5,0-6.75,0-.77-.19-1.08-1-1.05-3,.1-6.06.05-9.08.21a24.18,24.18,0,0,0-8.79,2,9,9,0,0,0-5.55,6.62,15.71,15.71,0,0,0-.25,4c.23,3.36,1.51,6.22,4.73,7.84a12.29,12.29,0,0,0,8.12.88,25.49,25.49,0,0,0,11.43-5.91,1.47,1.47,0,0,0,.38-1C339.73,412.45,339.71,410.2,339.71,407.94Z" transform="translate(-30.08 -30.08)"/><path class="cls-2" d="M282.15,46a30.12,30.12,0,0,1,6.69,14.92c1.38,8.89-.79,17.13-4.87,25-4.26,8.19-10.16,15.16-16.73,21.61a188.21,188.21,0,0,1-15.08,13,75,75,0,0,0-15.31,15.66A33.38,33.38,0,0,0,231,149.66a28.32,28.32,0,0,0,2,15.53c2.12,5.3,5.28,10,8.5,14.71s6.52,9.53,9.71,14.34a25.25,25.25,0,0,1,2.13,4.18c-.08-.06-.18-.1-.25-.16a270.41,270.41,0,0,1-21.28-20.59c-5-5.59-9.68-11.46-12.83-18.33a27.54,27.54,0,0,1-2.76-13.26,23.33,23.33,0,0,1,4.34-11.94,62.38,62.38,0,0,1,11.35-12.49c6.23-5.22,12.61-10.28,19-15.33s12.64-10,18.19-15.82c5.13-5.39,9.44-11.32,12-18.35a38.43,38.43,0,0,0,2.32-17C283.07,52.06,282.56,49,282.15,46Z" transform="translate(-30.08 -30.08)"/><path class="cls-2" d="M239.4,366.24h1c4.15,0,8.29,0,12.43,0a1,1,0,0,1,1.22.85c4,12.68,8,25.32,11.94,38,1.12,3.65,1.8,7.44,2.68,11.16.07.3.15.59.23.9.95-1,5.63-15.71,8-25a227.48,227.48,0,0,0,5.07-25.85h14c-.77,3.75-1.48,7.45-2.3,11.12a254.59,254.59,0,0,1-14.8,46.11c-.86,2-1.8,3.94-2.67,5.91a1,1,0,0,1-1.12.7q-7.47,0-14.93,0a1,1,0,0,1-1.09-.8q-9.69-31.11-19.42-62.22C239.54,366.88,239.49,366.61,239.4,366.24Z" transform="translate(-30.08 -30.08)"/><path class="cls-2" d="M316.28,103.13c-2.93,1.74-5.88,3.45-8.79,5.22-8.7,5.3-17.27,10.8-25,17.46A47.9,47.9,0,0,0,273,136.34a17.69,17.69,0,0,0-3.07,10.52,20.22,20.22,0,0,0,2.51,8.32c2.5,4.81,5.88,9.06,9,13.44a23.19,23.19,0,0,1,3.84,7.74c1.33,5.11.29,9.88-2.28,14.39a38.43,38.43,0,0,1-10,11.16c-2.85,2.22-5.89,4.21-8.84,6.31L264,208c.18-.2.36-.41.55-.61a25.44,25.44,0,0,0,6.73-11.07c1.5-5.55.24-10.6-3.16-15.16-2-2.62-4.16-5.06-6.1-7.69a41.08,41.08,0,0,1-7.21-15,27.66,27.66,0,0,1,4.2-22.29c4.13-6.27,9.74-11,15.94-15.2a131.52,131.52,0,0,1,30-14.45c3.6-1.26,7.27-2.31,10.91-3.45a2.25,2.25,0,0,1,.36-.06Z" transform="translate(-30.08 -30.08)"/><path class="cls-3" d="M341.23,285a30.33,30.33,0,0,1,3,2.28,3.43,3.43,0,0,1,.34,5.08,19.62,19.62,0,0,1-4.17,3.54,56.07,56.07,0,0,1-13.94,5.8,180.53,180.53,0,0,1-26.05,5.69q-8,1.19-16,2.14c-3.67.43-7.37.71-11.06,1-6.22.4-12.44.87-18.67,1-7.47.19-14.95.12-22.43.11-3.15,0-6.3-.09-9.45-.24q-8.22-.37-16.45-.88c-4.12-.26-8.25-.57-12.36-1s-8.39-.89-12.58-1.4q-7-.87-14-1.87c-4.38-.64-8.81-1.15-13-2.74a18.15,18.15,0,0,1-4.13-2.19c-1.85-1.34-2.08-3.26-.84-5.17a14.88,14.88,0,0,1,4.74-4.29,61.47,61.47,0,0,1,14.65-6.46,69.27,69.27,0,0,1,12.88-2.86,26.54,26.54,0,0,1,10.2.29,3.67,3.67,0,0,1,1.34.67c-1.24.1-2.49.15-3.72.3A54.89,54.89,0,0,0,169.6,290a10.42,10.42,0,0,0-2.67,2.2,1.9,1.9,0,0,0,.26,3,9.22,9.22,0,0,0,2.19,1.33A60.18,60.18,0,0,0,183,300.34q7.47,1.28,15,2.17c3.95.47,7.92.78,11.89,1,8.27.38,16.54.75,24.81.91,7.22.15,14.46.05,21.69-.05,4.75-.06,9.5-.27,14.25-.52,5.76-.3,11.52-.65,17.27-1.1,4.95-.39,9.89-.86,14.82-1.44,9.39-1.11,18.77-2.35,27.88-5a44.68,44.68,0,0,0,7.11-2.8,11.62,11.62,0,0,0,3.35-2.66,3.88,3.88,0,0,0,.33-5l-.42-.68Z" transform="translate(-30.08 -30.08)"/><path class="cls-3" d="M297.73,275.38c-3.09,1.1-6.17,2.27-9.3,3.28a128.08,128.08,0,0,1-21.5,4.82,137.39,137.39,0,0,1-24.57,1.22c-9.76-.38-19.41-1.61-28.67-4.88a26.4,26.4,0,0,1-8.17-4.2,11.45,11.45,0,0,1-2.52-2.86,3.76,3.76,0,0,1,.53-4.58,13.73,13.73,0,0,1,5.49-3.77,54.67,54.67,0,0,1,5.92-2.1c-.49.51-1,1-1.46,1.53-1.18,1.5-.93,2.88.72,3.93a14.24,14.24,0,0,0,5.84,1.92c3.78.51,7.57,1,11.38,1.28,5.35.39,10.71.73,16.08.81a103.64,103.64,0,0,0,17.06-1.15c5.75-.86,11.49-1.8,17.24-2.69a1.9,1.9,0,0,1,1.16.13,115.4,115.4,0,0,0,14.71,7Z" transform="translate(-30.08 -30.08)"/><path class="cls-3" d="M227.25,199.14c-2.63.72-5.1,1.36-7.54,2.08a70.32,70.32,0,0,0-12.9,4.77,13.39,13.39,0,0,0-2.54,1.73c-1.26,1.12-1.1,2.23.35,3.09a15.11,15.11,0,0,0,5.29,1.65,89.51,89.51,0,0,0,13.57,1.25c3.39.08,6.78.24,10.17.21,5.16,0,10.31-.22,15.46-.36,2.61-.07,5.22-.17,7.83-.33,3.56-.21,7.12-.47,10.67-.73,2.61-.19,5.21-.39,7.81-.65,3.26-.32,6.52-.69,9.77-1.09s6.4-.86,9.59-1.32c3.37-.49,6.73-1,10.27-1.54l-.78.39c-2.93,1.58-5.82,3.22-8.79,4.7a13.94,13.94,0,0,1-3.62,1c-5.59,1-11.16,2.08-16.77,2.92-4.26.63-8.56,1-12.86,1.39-4,.35-8,.62-12,.77-6.19.22-12.38.4-18.56.41-4.84,0-9.69-.15-14.51-.46s-9.69-.78-14.5-1.37a49.39,49.39,0,0,1-12.64-2.9,11.18,11.18,0,0,1-2.59-1.51,1.85,1.85,0,0,1-.09-3.14,12.17,12.17,0,0,1,2.64-1.85,89.46,89.46,0,0,1,22.19-7.6A70.5,70.5,0,0,1,227.25,199.14Z" transform="translate(-30.08 -30.08)"/><path class="cls-3" d="M208.19,231.67a31.62,31.62,0,0,0-2.42,3.2c-1.15,2-.71,3.83,1.33,4.89a17.23,17.23,0,0,0,5.09,1.78c3.43.55,6.91.86,10.38,1.14,4.3.36,8.61.72,12.92.83,5.28.12,10.56,0,15.84-.07,2.25,0,4.5-.2,6.75-.38,3.19-.26,6.38-.54,9.56-.91q5.46-.63,10.9-1.45c4.13-.64,8.25-1.38,12.38-2.06a1.32,1.32,0,0,1,.91.16,36.08,36.08,0,0,0,10.59,6.43,2.88,2.88,0,0,1,.28.21c-2.2.58-4.27,1.24-6.39,1.67-7,1.44-14,2.93-21.1,4.14-4.39.76-8.86,1.1-13.3,1.55a176.21,176.21,0,0,1-23.31.86c-5.63-.17-11.27-.57-16.88-1.07a74.37,74.37,0,0,1-18.15-3.69,53.52,53.52,0,0,1-6.79-3.26,6.14,6.14,0,0,1-1.63-1.47,3.61,3.61,0,0,1-.31-4.91,13.48,13.48,0,0,1,2.83-2.71A41,41,0,0,1,208.19,231.67Z" transform="translate(-30.08 -30.08)"/><path class="cls-3" d="M187.25,317.18c2.41.33,4.81.7,7.22,1,3.06.37,6.13.71,9.19,1,3.35.32,6.7.59,10,.85q3.28.25,6.56.4c10.59.51,21.19.73,31.79.53,5.31-.09,10.62-.25,15.92-.54,5.57-.31,11.14-.75,16.7-1.24,4.79-.42,9.58-.83,14.33-1.53,7.31-1.07,14.61-2.25,21.86-3.62a133.52,133.52,0,0,0,23.55-6.54,43.6,43.6,0,0,0,10.93-5.7c.84-.64,1.6-1.4,2.57-2.06-.25.78-.44,1.59-.75,2.35a16,16,0,0,1-5.46,6.56c-4.57,3.44-9.83,5.55-15.24,7.3a135,135,0,0,1-21.58,4.95c-5.33.79-10.67,1.55-16,2.13-4.81.53-9.64.87-14.47,1.15-6.08.34-12.15.61-18.23.75q-9.82.22-19.65.12-7.83-.07-15.65-.55c-5.85-.36-11.69-.86-17.51-1.42a114.59,114.59,0,0,1-19.81-3.47c-2.15-.6-4.25-1.41-6.37-2.13Z" transform="translate(-30.08 -30.08)"/><path class="cls-3" d="M310.78,201c1.55-2,3.7-2.72,5.94-3.27,6-1.47,11.76-1.19,17.23,1.76a15.79,15.79,0,0,1,8.55,11.06,16,16,0,0,1-2.05,11.26,30.15,30.15,0,0,1-8.92,9.55c-6.09,4.43-12.95,7.31-20.09,9.6-1.93.62-3.89,1.17-5.83,1.74l-.14-.22a9.78,9.78,0,0,1,1.25-1,84.67,84.67,0,0,0,16.19-10.62,33.89,33.89,0,0,0,8.35-10.07,15.74,15.74,0,0,0,1.92-6.94c.08-5.68-2.69-9.75-7.63-12.45a15.59,15.59,0,0,0-12.47-1C312.35,200.58,311.6,200.77,310.78,201Z" transform="translate(-30.08 -30.08)"/></g></svg>