<svg xmlns="http://www.w3.org/2000/svg" viewBox="0 0 490 490"><defs><style>.cls-1{fill:#fff;}</style></defs><g id="Capa_2" data-name="Capa 2"><path class="cls-1" d="M250.46,494.63c-135.31,0-245-109.69-245-245s109.69-245,245-245,245,109.69,245,245S385.77,494.63,250.46,494.63Zm210-245c-4.71-276-415.32-276-420,0,4.72,276,415.33,276,420,0Z" transform="translate(-5.46 -4.63)"/></g><g id="Capa_3" data-name="Capa 3"><path class="cls-1" d="M153.12,329.9V168.58a10.31,10.31,0,0,0,.39-1,20.19,20.19,0,0,1,6.56-10.72c2.73-2.36,6-3.52,9.33-4.57H330.72a6.52,6.52,0,0,0,1,.4c8.68,2,15.26,9.83,15.26,18.36q0,78.16,0,156.33c0,9.92-8.86,18.78-18.78,18.78q-78.17,0-156.33,0c-5.53,0-10.05-2.46-13.78-6.47C155.49,336.89,154.17,333.47,153.12,329.9ZM259.66,317v-2.45q0-22.44,0-44.86c0-1.83.1-3.66.24-5.48.42-5.38,4.66-10.5,10.1-12.27A14.29,14.29,0,0,1,285,256a16.08,16.08,0,0,1,3.95,11.11q0,23.76,0,47.51v2.24h28.93V262.8c0-11.87-4.75-21.44-14.33-28.35-11.61-8.38-25.57-9.09-37.57.45-2.24,1.78-4.31,3.76-6.31,5.52V230.06H230.89V317ZM211,317V230H182.35V317ZM196.68,213.28a17.3,17.3,0,0,0,17.41-17.4c-.09-9.45-7.13-17.27-17.3-17.3A16.92,16.92,0,0,0,179.4,196C179.41,206.06,187.18,213.1,196.68,213.28Z" transform="translate(-5.46 -4.63)"/></g></svg>