<svg xmlns="http://www.w3.org/2000/svg" viewBox="0 0 439.84 439.84"><defs><style>.cls-1{fill:#fff;}.cls-2{fill:#376995;}.cls-3{fill:#fcc233;}</style></defs><g id="Capa_1" data-name="Capa 1"><rect class="cls-1" width="439.84" height="439.84" rx="42.68"/></g><g id="Capa_2" data-name="Capa 2"><path class="cls-2" d="M75.09,249.71c-.2-95.34,76.8-176.06,175.78-176.7a177.94,177.94,0,0,1,133.64,59.32l12.81-12.21a193.19,193.19,0,0,0-141.72-65C148.52,53.24,59.46,138,57.08,246.89,56.31,303.16,78.79,353.27,115.19,389l12.68-12.08C95.32,344.75,75.28,299.75,75.09,249.71Z" transform="translate(-31.98 -30.08)"/><path class="cls-2" d="M162.93,262.64c-.29.51-.63,1-.87,1.51-4.54,10.09-9.13,20.15-13.57,30.27-1.72,3.93-4.5,5.81-8.76,5.82s-7.26-1.76-9-5.8c-4.38-10-8.91-19.88-13.38-29.82-.31-.67-.69-1.31-1-2l-.65.13a18.17,18.17,0,0,0-.18,1.94c0,10.75-.07,21.49,0,32.23,0,2.17-.67,2.84-2.75,2.66s-4,0-6.07,0a14.46,14.46,0,0,1-.17-1.57q0-18,0-36.08c0-4.39,1.11-5.84,5.41-6.88,4.52-1.1,8.86-1.14,11.94,3.11a23.76,23.76,0,0,1,2.36,4.7c4.1,9.49,8.15,19,12.23,28.49a7.37,7.37,0,0,0,.83,1.14,8.15,8.15,0,0,0,1-1.37c4.62-10.22,9.2-20.46,13.82-30.68,2.81-6.21,11.33-8.14,16.73-3.88,1.81,1.43,2.08,3.35,2.1,5.38,0,6.33,0,12.66,0,19,0,5.45-.05,10.9,0,16.35,0,1.8-.61,2.45-2.38,2.31a27.89,27.89,0,0,0-4.57,0c-1.92.17-2.47-.57-2.45-2.46.09-9.78,0-19.56.05-29.34v-5Z" transform="translate(-31.98 -30.08)"/><path class="cls-2" d="M227,287.18c0,5.05,0,10.1,0,15.15,0,4.19-1.86,7.21-5.67,8.61a29.85,29.85,0,0,1-9.27,2.05c-9.37.26-18.76,0-28.13.16-2.58,0-2.37-1.31-2.37-3s-.26-3.22,2.47-3.16c8.73.17,17.47.09,26.21,0a14.37,14.37,0,0,0,4.24-.57,4.43,4.43,0,0,0,3-6.08c-.22-.59-1.47-1.08-2.26-1.09-5.93-.09-11.86-.05-17.79-.05-4.23,0-8.3-.6-12-2.8a7.55,7.55,0,0,1-4.08-7.08q.13-9.14,0-18.28c0-1.72.6-2.17,2.24-2.18,7-.07,7-.11,7,7,0,4.33,0,8.66,0,13,0,3.19,1,4.61,4.18,4.73,7.12.29,14.25.23,21.38.28,1.52,0,1.5-1.1,1.5-2.2,0-6.74.08-13.47-.05-20.2,0-2.12.56-2.76,2.68-2.76,6.65,0,6.65-.06,6.66,6.68C227,279.32,227,283.25,227,287.18Z" transform="translate(-31.98 -30.08)"/><path class="cls-2" d="M394.5,246.16l-16.07,3.33c-.09.29-.18.59-.28.88a23.51,23.51,0,0,0,3.86,3.25c5.56,2.95,9.92,7.25,14,11.92.46.53.85,1.11,1.31,1.71-.31.12-.49.26-.56.22-6.29-3.93-12.68-7.72-18.81-11.89-2-1.33-3.34-3.59-4.82-5.54-1.09-1.45-.94-2.71,1.17-3.09l13.16-2.39c.54-.09,1.08-.11,2.27-.22a25.23,25.23,0,0,0-2.4-2.35c-6.2-4.42-12.4-8.79-20-10.67a7.44,7.44,0,0,1-4.17-3.59c-3.54-7-6.78-14.15-10.07-21.27-7.14-15.46-18.41-26.63-34.34-32.83-2.38-.93-5.22-.63-7.81-1.12A15.14,15.14,0,0,1,307,171c-3.49-1.74-6.87-3.72-10.45-5.27a4,4,0,0,0-3.62.65c-.6.6-.31,2.35,0,3.5a6.69,6.69,0,0,0,1.57,2.67,44,44,0,0,1,9.35,17.94,21,21,0,0,0,5.64,10.18c1.87,1.76,1.16,3.75.62,5.81a77.06,77.06,0,0,0-2.44,10.71,26.06,26.06,0,0,0,1.88,13.2,11.72,11.72,0,0,0,1.54,3,10.39,10.39,0,0,0,2.45,1.64,11.25,11.25,0,0,0,.92-2.54c.47-4.42,1-8.8,4.27-12.22a2.76,2.76,0,0,1,.52-.46l13,23.55c-5-4-9.7-8.77-11.85-15.63l-1,.34c-.33,1.9-.73,3.79-1,5.71-.29,2.26-.84,4.36-3.33,5s-4.15-.82-5.54-2.55c-4-5-5.24-10.85-4.85-17,.3-4.67,1.59-9.27,2.38-13.91.15-.88.39-2.15-.06-2.65-4.38-4.89-5.75-11.17-8.17-17-1.42-3.41-3.62-6.5-5.55-9.7-1-1.71-2.4-3.23-3.28-5a6.2,6.2,0,0,1,.7-7.21,5.74,5.74,0,0,1,7-1.77c4,1.75,7.82,3.89,11.73,5.84,1,.49,2,1.24,3,1.23,7.85-.06,14.4,3.19,20.58,7.62,11,7.86,19.63,17.54,24.8,30.22,2.48,6.07,5.43,12,8.41,17.81a7.9,7.9,0,0,0,3.68,3.43,70,70,0,0,1,20.65,13.4A56,56,0,0,1,394.5,246.16Z" transform="translate(-31.98 -30.08)"/><path class="cls-2" d="M315.25,186.54l-3.84-5.88c2-.9,3.3,0,4.36,1.41S316.54,185,315.25,186.54Z" transform="translate(-31.98 -30.08)"/><path class="cls-3" d="M384.51,132.33A173.47,173.47,0,0,1,429,247.22c.83,100.86-75.57,178.59-175.24,180a174.34,174.34,0,0,1-125.88-50.28L115.19,389A195,195,0,0,0,397.32,120.12Z" transform="translate(-31.98 -30.08)"/><path class="cls-3" d="M333.54,305.89c-2.77,0-5.6.36-8.28-.14-1.53-.28-3.09-1.72-4.15-3-2.76-3.41-6.18-3.76-10.28-3.46-6.43.46-13,1.05-19.28-1.11-5.18-1.76-7.23-4.59-7.24-10q0-10.7,0-21.4c0-4.91,1.74-7.68,6.32-9.37A21.66,21.66,0,0,1,297.4,256c6.89-.19,13.78-.12,20.67,0a20.89,20.89,0,0,1,5,.67c6,1.56,8.27,4.47,8.3,10.66,0,7.13,0,14.26,0,21.39,0,3.38-.81,6.35-4.08,8.1-1.69.9-1,1.88,0,2.81,2.12,1.93,4.26,3.85,6.39,5.77ZM310.21,293l-5.92-5.61c4.39-.41,8.8-1.94,12.12,2.21a33.81,33.81,0,0,0,2.64,2.42c1.15,1.15,2.36,1,3-.27a12.29,12.29,0,0,0,1.44-4.92c.17-6.16.1-12.33.08-18.49,0-4.76-2.29-7.11-7-7.18q-7.68-.12-15.37,0a11.37,11.37,0,0,0-3.75.69c-2.15.83-3.65,2.29-3.64,4.83,0,7.12-.09,14.25.1,21.37a7.28,7.28,0,0,0,1.89,4.19C297.59,294.32,307.36,294.8,310.21,293Z" transform="translate(-31.98 -30.08)"/><path class="cls-3" d="M250.64,299.28c-4.41,0-8.82-.09-13.22,0-2.2.07-2.23-1.16-2.25-2.74s.17-2.74,2.29-2.71c6.73.09,13.47,0,20.2,0h2.65c8.55-.06,8.57-3.2,7.73-10.6-.13-1.11-2.05-2.67-3.32-2.87a87.78,87.78,0,0,0-11.7-.81c-4.18-.09-8.3-.08-12.24-1.85-3.79-1.71-5.84-4.35-5.49-8.62a6.87,6.87,0,0,0,0-1.2c-.52-7.52,2.52-11.13,10.91-11.84s17.13-.27,25.71-.34a25.16,25.16,0,0,0,2.88,0c1.52-.17,2.77-.2,2.64,1.91-.1,1.7.49,3.5-2.47,3.45-8.34-.15-16.68-.11-25,.05-1.67,0-3.86.36-4.87,1.44-2.29,2.45-1.63,5.77-.86,8.68.66,2.49,2.86,3.49,5.43,3.55,5.36.11,10.74,0,16.09.45a24.17,24.17,0,0,1,7,2.16,6.81,6.81,0,0,1,4.45,7.22,1,1,0,0,0,0,.24c1,10.67-4,13.36-14.1,14.27-4.13.37-8.33.06-12.5.06Z" transform="translate(-31.98 -30.08)"/><path class="cls-3" d="M338.58,273.6c0-5.2,0-10.41,0-15.61,0-1.77.58-2.54,2.37-2.33a19.19,19.19,0,0,0,2.4.07c3.78,0,3.81,0,3.82,3.83,0,9,0,17.94,0,26.91,0,5.83,1.49,7.34,7.41,7.4,7.69.06,15.38.1,23.06,0,2.28,0,2.78.8,2.84,2.91.06,2.36-1.09,2.57-2.93,2.55-7.37-.05-14.74.06-22.1-.06-4.08-.06-8.14-.49-11.88-2.41a8.54,8.54,0,0,1-5-8.1C338.57,283.69,338.58,278.65,338.58,273.6Z" transform="translate(-31.98 -30.08)"/></g></svg>