<svg id="Capa_1" data-name="Capa 1" xmlns="http://www.w3.org/2000/svg" viewBox="0 0 439.84 439.84"><defs><style>.cls-1{fill:#fff;}.cls-2{fill:#e30c17;}</style></defs><rect class="cls-1" width="439.84" height="439.84" rx="42.68"/><path class="cls-2" d="M248.13,67.29c9.7-.76,18.64-1.68,27.6-2.11,21.72-1,43.24.69,64.27,6.33,6.48,1.74,12.65,4.89,18.72,7.87,4.09,2,5.87,5.78,5.69,10.53-.21,5.59-.25,11.2,0,16.79.19,4.27-1.35,7.57-4.92,9.49-4.76,2.56-9.63,5.15-14.77,6.72-22.69,6.9-46.05,8.07-69.57,7.35-3.74-.11-7.47-.38-12.34-.63,0-11.56-.14-22.59,0-33.61C263,84.75,259,75.72,249.64,69.2A13.35,13.35,0,0,1,248.13,67.29Z" transform="translate(-31.98 -30.08)"/><path class="cls-2" d="M229.92,188.63c-3.79,2.08-5.76,4.81-4,9.73,1.17,3.19-.6,5.93-3.87,7.21-3.09,1.21-6.25,2.27-9.41,3.28-4.2,1.35-7.41.17-8.62-4.06-1.09-3.82-3.26-4.59-6.62-4.31a17.16,17.16,0,0,1-4.53-.07c-3.48-.65-5.89.38-7.11,3.82a2.84,2.84,0,0,1-.72,1.14c-6.57,6.22-11.35-.69-16.7-2.49-3.93-1.32-5.13-5-3.27-8.55s.86-5.57-1.69-7.8a29.86,29.86,0,0,1-4-4.33c-2.33-3-4.79-4.38-8.85-2.83-3.2,1.22-6-.58-7.3-3.77a90.22,90.22,0,0,1-3.68-10.71,5.59,5.59,0,0,1,4.26-7.35c3.84-1,4.67-3.22,4.39-6.62a21.52,21.52,0,0,1,.09-4.54c.43-3.48-.38-6-4-7.52s-4.36-4.83-2.84-8.4c1.25-2.91,2.66-5.76,4.14-8.57,2.3-4.4,4.75-5.42,9.27-3.32,2.77,1.29,4.75,1.24,6.72-1.19a24.54,24.54,0,0,1,4-3.69c3.29-2.56,5.42-5.13,3.68-9.88-1.31-3.58.72-6.41,4.49-7.67,3-1,6-2.08,9-3,4-1.29,7.09.11,8.24,4s3.41,4.9,7,4.52a18.56,18.56,0,0,1,4.07.2c3.47.41,6-.37,7.6-4,1.78-4,5.25-4.69,9.16-2.89,2.61,1.21,5.21,2.44,7.75,3.77,4.59,2.41,5.66,4.89,3.39,9.59-1.49,3.07-.81,5,1.49,7.07a32.91,32.91,0,0,1,4,4.31c2.39,3.07,4.94,5.33,9.08,3a2.58,2.58,0,0,1,1.34-.14c9.09.7,7.41,9.11,9.87,14.33,1.77,3.75-.71,6.9-4.57,7.9-3.58.93-4.48,2.93-4.17,6.24a24.69,24.69,0,0,1-.19,5.43c-.38,2.95.76,4.69,3.41,6.11,4.72,2.52,5.54,5.3,3.22,10.07-1.95,4-4.17,7.92-6.36,12,3.36-1.3,7.11-2.52,10.6-4.26,1-.48,1.45-2.47,1.6-3.83.4-3.51,2.1-5.16,5.67-4.94,2,.13,3.94,0,5.9.07,2.84.15,4.7,1.58,4.41,4.58-.31,3.19,1.13,4.69,4,5.52,1.73.51,3.3,1.83,5,2s4.15,0,5.45-1.09c2.85-2.3,5.13-2.15,7.53.33,1.36,1.41,2.66,2.88,4,4.31,2,2.09,2.4,4.48.11,6.32-2.79,2.25-2.31,4.48-1,7.14a36.84,36.84,0,0,1,2.22,5.45c.8,2.63,2.15,4,5.17,3.84s4.76,1.67,4.76,4.84c0,2.12.08,4.25-.1,6.35-.25,2.91-1.6,5-4.91,4.62-3-.35-4.25,1.1-5.25,3.69-1.65,4.28-4.72,8.37.27,12.55.56.48.59,2.59,0,3.22a44.5,44.5,0,0,1-7.4,7.25c-.93.68-3.74.1-4.71-.88-2.24-2.27-4.23-2.35-6.82-1A25.84,25.84,0,0,1,278.3,253c-2.86.75-4.34,2.32-4.38,5.36,0,3.26-1.93,4.48-5.07,4.26-1.8-.13-3.63-.1-5.44-.05-3.49.08-5.23-1.29-5.41-5.06-.07-1.47-1.58-3.23-2.92-4.19-1.67-1.21-3.91-1.59-5.76-2.59-2.22-1.2-3.89-.88-5.59,1-2.32,2.53-4.73,2.22-7-.21-1.34-1.43-2.68-2.87-4.08-4.26-2.21-2.2-2.59-4.62-.12-6.64,2.31-1.88,2-3.69.92-5.94a54.17,54.17,0,0,1-2.4-5.86c-.95-2.79-2.2-4.62-5.72-4.65-1.34,0-3.53-2.27-3.82-3.79a20.58,20.58,0,0,1,.4-8.51c.31-1.25,2.45-2.94,3.68-2.88,3.51.16,4.86-1.62,5.79-4.48.55-1.72,1.73-3.29,2-5a10.21,10.21,0,0,0-.59-4.81A56.16,56.16,0,0,0,229.92,188.63Zm-50.74,11.79c0-.46-.09-.91-.13-1.37,2.83-1.9,5.47-4.94,8.53-5.44,4.82-.79,9.93.06,14.91.32,3.33.18,5.82,1.71,6.76,5.06s2.86,2.81,5.25,1.87,4.92-1.28,3.47-4.83-.06-6.17,2.47-8.5c2.33-2.16,4.75-4.24,7-6.47,4.56-4.53,9.08-8.95,16.06-3.95l4.06-8.3c-7.72-2.07-8.25-7.6-7.55-13.75a21.08,21.08,0,0,0,.06-3.18c-.22-6.44.28-12.45,9-13.44-1.18-3.36-2.11-6-3.16-9-6.54,3.73-10.74.9-14.41-3.93a41.34,41.34,0,0,0-4.88-5.36c-4.59-4.2-7-8.8-2.64-15l-8.41-3.95c-1.93,7.18-6.86,8.29-12.87,7.58a74.11,74.11,0,0,0-8.17-.34c-4.19,0-7.15-1.62-8.91-5.68-.45-1-2.63-2-3.93-1.86-1.79.13-3.5,1.3-5.18,2,2.1,7.72,1.9,8.44-3.61,13.49-1.56,1.43-3.15,2.84-4.7,4.27-4.61,4.25-8.92,9.49-16.13,3.92-1.5,3.2-2.62,5.6-3.92,8.4,6.94,2.1,8,7.1,7.3,13-.22,1.8-.2,3.63-.27,5.44-.22,5.68-.59,11.26-8.56,12.12l3.13,8.86c6.51-3.52,10.46-.36,14,4.15a51.9,51.9,0,0,0,5.21,5.68c4.29,4,6.61,8.32,2.67,14.16Zm55-10c4.23,5.79,4.23,5.79,1.77,11.88-.62,1.54-1.3,3.06-1.88,4.61-1.14,3.06-2.85,5.13-6.51,5.36-1,.06-2.33,1.85-2.68,3.09-.47,1.61-.12,3.47-.12,5.78,7.5-1.18,8.59,4.31,10.36,8.92s5.82,9.39-1.11,13.53l5.85,6.26c9.44-5.57,20.47-1.05,22.13,8.95.65.09,1.38.16,2.1.29,3.7.65,7,1.06,7-4.5,0-1.24,2.08-2.78,3.53-3.63,2.07-1.2,4.49-1.79,6.67-2.82,4.35-2,8.58-3.58,12.06,2.14l6.86-6.71c-6.53-4-3.59-8.5-1.91-13.1,1.82-5,3.94-9.28,10.45-8,.27-4.75,2.21-9.67-5.22-9.52-1,0-2.26-1.85-2.92-3.1-1.12-2.13-1.71-4.53-2.79-6.68-2.25-4.46-3.78-8.75,1.88-12.27l-6.25-6.72c-4,6-8.7,3.89-13.37,1.69a30.42,30.42,0,0,0-3.32-1.46c-3.1-1-4.73-2.81-4.84-6.26,0-1-1.66-2.51-2.82-2.83-1.78-.48-3.78-.12-6.28-.12,1.34,7.34-3.79,8.74-8.58,10.44s-9.48,5.56-13.64-1.22Z" transform="translate(-31.98 -30.08)"/><path class="cls-2" d="M264.28,162.78v-18c33.82,1.39,67.53,1.14,99.55-14.41.27,2.44.5,3.59.5,4.73,0,9.69-.07,19.38.07,29.07.06,4.13-1.52,7.25-5.22,8.72-5.44,2.16-11,4.48-16.69,5.53-9.19,1.68-18.55,2.52-27.88,3.38-1.38.13-3.59-1.27-4.31-2.57-5.89-10.72-14.38-16.87-27-16.51C277.11,162.92,270.93,162.78,264.28,162.78Z" transform="translate(-31.98 -30.08)"/><path class="cls-2" d="M364.35,187.48c0,13.07.45,24.14-.29,35.13-.21,3.07-3.3,6.84-6.12,8.69-9.51,6.25-20.57,8.52-31.61,10.5-4.72.85-9.5,1.4-13.47,2v-46.9C330.86,196.32,347.77,195.42,364.35,187.48Z" transform="translate(-31.98 -30.08)"/><path class="cls-2" d="M198,172.63a21.78,21.78,0,0,1-22.11-21.72c-.22-11.75,10.07-21.86,22.15-21.77,11.8.08,21.81,10.17,21.68,21.84A21.77,21.77,0,0,1,198,172.63Zm14.72-21.8a15.32,15.32,0,0,0-15.43-14.68A14.91,14.91,0,0,0,183,151.36a15.17,15.17,0,0,0,15.09,14.5C206,165.67,212.79,158.64,212.68,150.83Z" transform="translate(-31.98 -30.08)"/><path class="cls-2" d="M282.78,217.55a15.91,15.91,0,1,1-15.42-16.2A15.7,15.7,0,0,1,282.78,217.55Zm-28.36-.32a12.32,12.32,0,0,0,12.63,12.54,12.55,12.55,0,0,0,12.44-12.35,12.54,12.54,0,1,0-25.07-.19Z" transform="translate(-31.98 -30.08)"/><path d="M108.06,324.16c4.62,0,9.24,0,13.86,0A22.9,22.9,0,0,1,122.6,370c-9.65.27-19.33.27-29,0-12.76-.37-22.2-10.62-22-23.39a22.56,22.56,0,0,1,22.55-22.37C98.81,324.11,103.43,324.16,108.06,324.16Zm.27,7.4v0c-4.06,0-8.11,0-12.17,0-9.57.1-16.35,6.47-16.44,15.38-.08,8.67,6.49,15.38,15.77,15.63q12.78.33,25.59,0c8.93-.26,15.57-7.13,15.49-15.55s-6.76-15.09-15.66-15.37C116.72,331.45,112.52,331.56,108.33,331.56Z" transform="translate(-31.98 -30.08)"/><path d="M429.06,343.11c-3,7.49-3.38,7.73-9.92,7.73q-15.92,0-31.83,0c.17,5.4,4.56,10.13,10.88,11.17,4.24.7,8.63.52,13,.57,6.93.08,13.87,0,21,0-2.78,7.15-3.2,7.44-9.78,7.43-7.13,0-14.27,0-21.41,0-13.18-.1-23.29-10.18-23.23-23.1.07-12.74,10.11-22.67,23.08-22.73,10.07-.05,20.13,0,30.26,0-1.34,6-3,7.36-8.67,7.37-7,0-14-.09-21,.08-7.6.17-13.23,4.64-14.3,11.5Z" transform="translate(-31.98 -30.08)"/><path d="M164.45,347.7c2.57-.11,3.91-.22,5.26-.23,5.46,0,10.92,0,16.38,0,6.41,0,10.19-3,10.23-8s-3.72-7.89-10.25-7.9c-7.84,0-15.68.1-23.52-.06-3.06-.06-4.21.95-4.16,4.09.14,10.08-.07,20.16.11,30.23.06,3.34-1,4.34-4.33,4.35s-4-1.18-4-4.19c.12-13.7.05-27.4.05-41.46,1.53-.14,2.74-.34,3.94-.34,11.62,0,23.24-.06,34.86,0,8.67.06,15,6.16,15.26,14.58A15.33,15.33,0,0,1,190,354.93c-1.37.12-2.75.14-5.55.28l16.92,14.41c-6.78,1-12,.71-16.8-4.13C178.63,359.45,171.87,354.18,164.45,347.7Z" transform="translate(-31.98 -30.08)"/><path d="M271.5,369.41c-8.07,1.54-8.66,1.41-12.12-4.51a5.66,5.66,0,0,0-5.76-3.14c-4.89.18-9.8,0-14.7.05-6.7,0-6.9-.13-9.76-7.36h23.16L239.18,333.2c-1.26,1.7-2.1,2.71-2.8,3.82-5.76,9.11-11.83,18-17.1,27.42-3,5.4-6.89,6.63-12.84,5.08.68-1.25,1.24-2.45,1.94-3.55Q220.44,347,232.54,328.1c3.86-6,8.83-6.1,12.71-.08q12.06,18.69,24,37.47C270,366.65,270.62,367.87,271.5,369.41Z" transform="translate(-31.98 -30.08)"/><path d="M322.21,324.71c-1.7,5.29-4.82,7.45-10.4,7-6.25-.55-12.58-.19-18.87-.11-9.18.12-16.16,6.63-16.38,15.14s6.76,15.63,16.12,15.84c8.52.19,17.06,0,25.59.06h4.64c-2.51,7-3.13,7.45-9.62,7.44-7.41,0-14.82.07-22.23-.05a22.91,22.91,0,0,1,0-45.81c10.07-.07,20.14,0,30.21.07C321.52,324.25,321.76,324.48,322.21,324.71Z" transform="translate(-31.98 -30.08)"/><path d="M377.71,362.81c-2.33,6.67-3.08,7.23-9.23,7.22-11.33,0-22.66,0-34,0-3.44,0-5.45-1.41-5.47-4.84-.08-13,0-26,0-39a6.84,6.84,0,0,1,.54-1.76c1.11-.08,2.21-.11,3.3-.27,3.29-.48,4.37.88,4.31,4.19-.19,9.79.08,19.59-.16,29.38-.09,3.93,1.3,5,5.09,4.94,10.21-.22,20.42-.08,30.63-.06C374.36,362.6,376,362.73,377.71,362.81Z" transform="translate(-31.98 -30.08)"/><path d="M210.55,449.34V402c7.78.71,15.42.56,22.62,2.28,10.11,2.41,16.11,15.44,13.7,27.49-2.12,10.59-8,16.4-18.78,17.47C222.49,449.8,216.79,449.34,210.55,449.34Zm8-38.11c0,9.12,0,18.36.07,27.6a3.06,3.06,0,0,0,1.77,2.08,13.58,13.58,0,0,0,17.51-8.61C242,418.88,233.24,408.92,218.56,411.23Z" transform="translate(-31.98 -30.08)"/><path d="M277.61,423.67c4.94,3.14,8.15,6.44,8.09,12-.06,6.94-3.72,12.07-10.6,13.11-5.73.88-11.59.87-17.85,1.29V402.73c4.16,0,8.26-.3,12.3.08,5.15.48,9.74,2.3,12,7.62S282,419.81,277.61,423.67ZM265.07,429c0,3.61-.15,6.81.09,10,.07.86,1.43,2.4,2,2.31,3.08-.5,6.33-1,9-2.42,1-.54,1.58-4.49.75-5.37-1.89-2-4.7-3.24-7.3-4.42C268.54,428.62,267,429,265.07,429Zm.28-6.87c3.23-1.45,6-2.15,7.92-3.8.88-.75.87-4.26,0-5-1.94-1.64-4.69-2.31-7.91-3.74Z" transform="translate(-31.98 -30.08)"/></svg>