<svg xmlns="http://www.w3.org/2000/svg" viewBox="0 0 439.84 439.84"><defs><style>.cls-1{fill:#141c32;}.cls-2{fill:#45a1da;}</style></defs><g id="Capa_1" data-name="Capa 1"><rect class="cls-1" width="439.84" height="439.84" rx="42.68"/></g><g id="Capa_2" data-name="Capa 2"><path class="cls-2" d="M155,289.1v62.76c0,.68,0,1.37,0,2.05a2.32,2.32,0,0,1-2.39,2.45c-.52,0-1.06,0-1.58,0H115.62c-.53,0-1.06,0-1.59,0-1.55-.11-2.18-.68-2.35-2.19a19.84,19.84,0,0,1,0-2V148.63c0-3.74.2-3.89,4-4,12.7-.27,25.4-.67,38.11-.85,10.51-.15,21-.35,31.54,0,14,.47,27.61,3.15,40.31,9.37,19.87,9.71,32.12,25.42,36.46,47.1a83.13,83.13,0,0,1-1.58,38.84c-4,14.51-12.58,25.81-24.64,34.59-8.56,6.24-18.25,10-28.51,12.32-13.14,3-26.49,3.48-39.89,3.23-3.25-.06-6.5-.24-9.75-.33C156.87,288.91,156.06,289,155,289.1Zm.44-38c.79.09,1.31.19,1.83.2,5,.14,10,.29,15,.37a75.11,75.11,0,0,0,18-1.81c5.38-1.22,10.69-2.67,15.43-5.69,6.85-4.36,11.78-10.12,13.39-18.29a43,43,0,0,0,.55-15.54c-1.68-10-6.75-17.69-16-22.27a48.17,48.17,0,0,0-20.31-5c-8.38-.21-16.78,0-25.17,0a21.83,21.83,0,0,0-2.68.31Z" transform="translate(-31.98 -30.08)"/><path class="cls-2" d="M285.31,328V312.35c0-.46,0-.91,0-1.36.08-2.5.93-3,3.08-1.78a82,82,0,0,0,16.75,7.4,110.61,110.61,0,0,0,23.93,4.79,68.74,68.74,0,0,0,18.07-.61,31.27,31.27,0,0,0,6-1.9c4.71-1.95,8.24-8.82,3.1-14.53a26.1,26.1,0,0,0-9.33-6.29c-5.89-2.55-11.85-4.93-17.8-7.31a113.91,113.91,0,0,1-22.77-12.09c-9.21-6.4-16.19-14.6-19.12-25.64A46.23,46.23,0,0,1,290.12,221c4.55-9.85,11.95-17,21.42-22a67.47,67.47,0,0,1,25.95-7.46,154.53,154.53,0,0,1,27.63.14c8.59.74,17.11,2,25.18,5.28,2.8,1.14,3.35,1.84,3.35,4.9,0,10.43-.08,20.87.07,31.3,0,3.08-1.51,3.75-4.47,2.92a19.57,19.57,0,0,1-3.06-1.48,83.27,83.27,0,0,0-21.44-6.33,89.91,89.91,0,0,0-21.9-1.41,46.57,46.57,0,0,0-8.87,1.68,9.11,9.11,0,0,0-3.76,15.44,26.26,26.26,0,0,0,5.78,4.32A121,121,0,0,0,353.33,256a127.85,127.85,0,0,1,30.49,15.33c10,7,16.34,16.56,17.77,28.84,2.34,20.08-5.29,37.07-22.6,47.71-7.5,4.61-15.81,7.08-24.43,8.6A119.72,119.72,0,0,1,327,357.79c-11.41-.62-22.69-2.29-33.5-6.27-1.77-.65-3.49-1.44-5.23-2.16a4.37,4.37,0,0,1-3-4.57C285.37,339.19,285.31,333.6,285.31,328Z" transform="translate(-31.98 -30.08)"/></g></svg>