<svg xmlns="http://www.w3.org/2000/svg" viewBox="0 0 439.84 439.84"><defs><style>.cls-1{fill:#fff;}.cls-2{fill:#396a95;}.cls-3{fill:#fcc234;}</style></defs><g id="Capa_1" data-name="Capa 1"><rect class="cls-1" width="439.84" height="439.84" rx="42.68"/></g><g id="Capa_2" data-name="Capa 2"><path d="M104.08,409.08v31.18c-6.42-.1-9-2.41-8.81-9,.45-20,.34-40,0-60-.08-5.05,1.53-8.85,6-10.11,7.5-2.15,15.24-4.12,23-4.54,6-.31,10.72,3.85,13.91,9.17,5.88,9.81,6.7,20.41,3.84,31.11-3.8,14.19-16.43,20.27-30.27,15.24C109.54,411.39,107.42,410.44,104.08,409.08Zm.11-24.54c0,4.71-.1,9.43,0,14.15.05,1.61.25,3.61,1.2,4.75,6,7.08,20.58,5.95,24.54-2.31,5.08-10.57,4.65-21.73-.07-32.34-2.78-6.24-9-7.25-18-5.38-6.87,1.42-8.44,5.32-7.77,11.49A88.5,88.5,0,0,1,104.19,384.54Z" transform="translate(-30.08 -30.08)"/><path d="M293.15,412.51h-9.09c0-9.1,0-18.07,0-27a102.79,102.79,0,0,0-.2-11c-1-8.75-7.23-12.63-15.66-10-9.76,3.07-11.2,5-11.2,15v33h-8.5c-.13-2.08-.36-4.12-.36-6.17,0-23.89.17-47.79-.14-71.67-.09-6.07,2.43-8,8.82-8.07V363c5.45-1.88,9.7-3.79,14.16-4.81,13.13-3,22,4.11,22.14,17.61C293.26,387.79,293.15,399.81,293.15,412.51Z" transform="translate(-30.08 -30.08)"/><path d="M167.86,437.25c23.71-8.54,25.52-10.67,23.66-26.83-4.74,1-9.4,2.3-14.15,3.05-14.66,2.32-23.13-4.92-23.2-19.69q-.07-13.87,0-27.75c0-6.85.07-6.85,8.4-8.65.18,2.33.48,4.53.49,6.74q.09,15.17,0,30.33c0,6.4,2.87,10.58,9,12.5,5.66,1.77,16.21-.23,18.66-4,.95-1.46,1-3.65,1.05-5.52.09-10.75,0-21.51.06-32.26,0-2.31.21-4.61.34-7.17h8.3c0,4.65.06,9.09,0,13.53-.23,15.48-.25,31-.85,46.44a24.2,24.2,0,0,1-26.5,23C171.64,440.85,170.26,439,167.86,437.25Z" transform="translate(-30.08 -30.08)"/><path d="M352.31,384.67c-.09,20.69-14.73,33.27-32.67,28.06-12.27-3.57-20.07-19.12-17.24-34.39,2.57-13.81,13.77-23,26.76-21.88C343.39,357.66,352.38,368.62,352.31,384.67Zm-41.83.76c1.7,5.19,2.75,11.74,5.86,17.1,5,8.56,17.74,8.28,22.47-.43,5.74-10.58,5.88-21.87.34-32.72-2.52-4.94-7.18-7.3-12.84-7-5.89.31-10.39,3.22-12.46,8.68C312.28,375.2,311.76,379.74,310.48,385.43Z" transform="translate(-30.08 -30.08)"/><path d="M405.53,412.49h-8.19c0-6.57,0-12.94,0-19.31s.17-12.49-.22-18.71c-.36-6-3.65-11-9.56-11.27-5.43-.27-11,1.89-16.41,3.52-.81.25-1,3.47-1,5.31-.08,13.31,0,26.62,0,40.49h-8.75V403.3c0-10.75.17-21.51-.09-32.26-.1-4,1.36-6.21,4.7-8.17a41.11,41.11,0,0,1,26.67-5.3c7.15.89,12.58,5.74,12.76,12.38C405.8,383.88,405.53,397.83,405.53,412.49Z" transform="translate(-30.08 -30.08)"/><path d="M226,340v17.68c2.93,0,5.1-.28,7.14.11,1.11.21,2,1.55,3,2.38-.94.9-2,2.66-2.81,2.56-7.49-.95-7.64,3.57-7.47,9,.27,8.37.07,16.76.09,25.14,0,5.52,1,10.32,7.7,11.55,1,.19,1.74,1.95,2.61,3-1.33.69-2.66,2-4,2-9.67-.15-15-5.52-15.08-15.38-.13-11.16,0-22.32,0-33.12l-5.86-4.6,5.78-4.55C219.3,351.25,212.14,340.48,226,340Z" transform="translate(-30.08 -30.08)"/><path class="cls-2" d="M299.78,136l-1.45-57.16a37.73,37.73,0,0,0-8.24-11.14c-10.53-9.7-23.71-10-40.69-10.17-16.75-.16-38.35-.34-49.88,14.05a29.61,29.61,0,0,0-2.91,4.35v29.55l51.83-.48-.49,8.23-76-.48a39.65,39.65,0,0,0-17,8.72c-16.63,14.76-13.44,38.69-13.07,41.17-.26,4.17-2.2,41.83,16.46,50.37a18.85,18.85,0,0,0,4.85,1.45l26.64.49-.49-28.58a32,32,0,0,1,9.21-16.95,31.64,31.64,0,0,1,14-7.75l65.88-1a23.13,23.13,0,0,0,15-6.78C300.55,146.67,299.9,137.4,299.78,136ZM217.92,91.44c-4.73-.22-9.19-4.11-9.2-9.2s4.23-8.77,8.72-9.2c5.27-.5,10.66,3.69,10.65,9.2C228.08,87.53,223.1,91.69,217.92,91.44Z" transform="translate(-30.08 -30.08)"/><path class="cls-3" d="M353.38,165.71c.26-4.18,2.2-41.83-16.46-50.37a18.35,18.35,0,0,0-4.85-1.45l-26.64-.49.49,28.58a31.49,31.49,0,0,1-23.25,24.7l-65.88,1a23.13,23.13,0,0,0-15,6.78c-7.07,7.26-6.42,16.53-6.3,17.92l1.45,57.16a37.73,37.73,0,0,0,8.24,11.14c10.53,9.69,23.71,10,40.69,10.17,16.75.15,38.35.34,49.88-14.05a29.1,29.1,0,0,0,2.91-4.36V222.87l-51.83.48.49-8.23,76,.48a39.65,39.65,0,0,0,17-8.72C356.94,192.12,353.75,168.19,353.38,165.71Zm-77.66,69.53c5.28-.5,10.67,3.7,10.66,9.21,0,5.29-5,9.45-10.17,9.2-4.73-.23-9.2-4.12-9.21-9.2S271.23,235.67,275.72,235.24Z" transform="translate(-30.08 -30.08)"/></g></svg>