<svg id="Capa_2" data-name="Capa 2" xmlns="http://www.w3.org/2000/svg" viewBox="0 0 490 490"><defs><style>.cls-1{fill:#1d1d1b;}</style></defs><path class="cls-1" d="M139.39,340.9c24.74-.43,47.73-5.69,69.64-21.83C187,315,171.4,304.79,163.44,283.85l19.6-1.57c-23.76-10.63-36.8-25.41-37.74-50l20.76,5c-20.88-20.83-26-42.2-13.84-68.21,28.36,31.75,62.09,50.62,104.4,52.89-2.38-37,19.92-63.75,52.27-62,9.49.51,20.2,3.84,27.69,9.44,8.12,6.08,14.6,5.64,22.52,2.48,5.32-2.12,10.6-4.32,15.89-6.48l2.08,1.94-16.83,23.58,21.34-5.63,1.64,1.26c-6.11,6.44-12.55,12.6-18.17,19.44-2.73,3.33-5.48,7.89-5.57,12-1.88,84.88-68.92,148.29-153.67,144.43C182.07,361.27,159.73,354.47,139.39,340.9Z" transform="translate(-5.46 -4.63)"/><path class="cls-1" d="M250.46,494.63c-135.31,0-245-109.69-245-245s109.69-245,245-245,245,109.69,245,245S385.77,494.63,250.46,494.63Zm210-245c-4.71-276-415.32-276-420,0,4.72,276,415.33,276,420,0Z" transform="translate(-5.46 -4.63)"/></svg>