<svg id="Capa_1" data-name="Capa 1" xmlns="http://www.w3.org/2000/svg" viewBox="0 0 281.87 283.26"><defs><style>.cls-1,.cls-2{fill:#fff;}.cls-2{font-size:32px;font-family:MyriadPro-Regular, Myriad Pro;}.cls-3{letter-spacing:0em;}.cls-4{letter-spacing:-0.01em;}.cls-5{letter-spacing:0em;}.cls-6{letter-spacing:0em;}.cls-7{letter-spacing:-0.01em;}</style></defs><polygon class="cls-1" points="38.78 0.15 38.78 283.08 147.72 219.66 147.72 194.46 60.73 244.87 60.73 14.79 38.78 0.15"/><polygon class="cls-1" points="162.35 185.52 238.78 141.62 207.88 122.1 93.25 185.52 93.25 35.92 185.12 87.14 166.01 98.53 112.76 70.07 113.57 153.81 207.88 99.34 281.87 141.62 163.17 210.72 162.35 185.52"/><text class="cls-2" transform="matrix(0.01, 1.07, -1, 0.01, 8, 0.25)"><tspan class="cls-3">D</tspan><tspan x="21.44" y="0">e</tspan><tspan class="cls-4" x="37.47" y="0">v</tspan><tspan x="52.54" y="0">eloper &amp; </tspan><tspan class="cls-5" x="171.31" y="0">D</tspan><tspan class="cls-6" x="192.75" y="0">esi</tspan><tspan class="cls-7" x="228.94" y="0">g</tspan><tspan x="246.63" y="0">n</tspan></text></svg>